# xmcd
# 
# Track frame offsets:
#     150
#     20570
#     39264
#     58731
#     80276
#     93537
#     103776
#     112061
#     128504
#     150433
#     170303
#     183835
#     199371
#     217165
#     234868
#     246705
#     266384
#     286089
#     301325
#     312575
#     323197
# 
# Disc length: 4570
# 
# Revision: 6
# Processed by: cddbd v1.5.2PL0 Copyright (c) Steve Scherf et al.
# Submitted via: fre:ac v1.0.31
# 
DISCID=2411d815
DTITLE=Johnny Hallyday - Les 100 plus belles chansons - CD5
DYEAR=2006
DGENRE=Rock
TTITLE0=Vivre pour le meilleur
TTITLE1=Quelque chose de Tennessee
TTITLE2=Au bord des routes
TTITLE3=J'ai oubli2 de vivre
TTITLE4=Retiens la nuit
TTITLE5=Lles bras en croix
TTITLE6=Loving you (Lorada Tour 1995)
TTITLE7=C'est mieux ainsi
TTITLE8=Le chanteur abandonn2
TTITLE9=Essayez
TTITLE10=Je me suis lav2 les mains dans une eau sale
TTITLE11=Rien n'vaut cette fille-là
TTITLE12=Et puis je sais
TTITLE13=Sur ma vie (Stade de France 1998)
TTITLE14=Poème sur la 7ème
TTITLE15=Regarde pour moi
TTITLE16=Rock 'n' roll man (Stade de France 1998)
TTITLE17=La première pierre
TTITLE18=Jeanie Jeanie et ta soeur
TTITLE19=La fille de l'été dernier
TTITLE20=Allumer le feu
EXTD=YEAR: 2006
EXTT0=
EXTT1=
EXTT2=
EXTT3=
EXTT4=
EXTT5=
EXTT6=
EXTT7=
EXTT8=
EXTT9=
EXTT10=
EXTT11=
EXTT12=
EXTT13=
EXTT14=
EXTT15=
EXTT16=
EXTT17=
EXTT18=
EXTT19=
EXTT20=
PLAYORDER=
